<?xml version="1.0"?>
<svg version="1.1" xmlns="http://www.w3.org/2000/svg" width="400" height="200" style=""><path fill="#ffffff" d="M51.92,94.56c0,0.12-0.04,0.24-0.08,0.36l-7.48,25.6c-0.2,0.72-0.64,1.08-1.32,1.08l-2.64,0c-0.64,0-1.08-0.32-1.28-1.04l-5.2-18.32l-0.08,0l-5.2,18.2c-0.28,0.92-0.6,1.16-1.36,1.16l-2.56,0c-0.68,0-1.04-0.2-1.32-1.2l-7.64-25.32c-0.04-0.2-0.08-0.36-0.08-0.52c0-0.44,0.24-0.64,0.72-0.64l3.84,0c0.84,0,1.2,0.36,1.36,1l4.88,18.44l0.04,0l5.08-18.56c0.16-0.64,0.6-0.88,1.2-0.88l2.68,0c0.64,0,0.96,0.32,1.12,0.84l5.08,18.6l0.08,0l4.84-18.52c0.2-0.72,0.64-0.92,1.24-0.92l3.44,0c0.44,0,0.64,0.28,0.64,0.64z M74.78,120.64c0,0.64-0.28,0.96-0.96,0.96l-14.84,0c-0.8,0-1.08-0.2-1.08-1.08l0-25.6c0-0.64,0.28-1,0.92-1l15.08,0c0.64,0,0.84,0.24,0.84,0.68l0,0.24l-0.28,2.4c-0.08,0.72-0.52,0.84-1.36,0.84l-10.04,0l0,7.24l9.24,0c0.76,0,1,0.32,1,0.88l0,2.28c0,0.68-0.28,0.96-0.96,0.96l-9.28,0l0,8l10.72,0c0.68,0,1,0.28,1,0.92l0,2.28z M101.16,113.52c0,6.48-5.24,8.08-10.92,8.08l-7.44,0c-0.84,0-1.04-0.32-1.04-1.16l0-25.48c0-0.84,0.36-1.04,1.2-1.04l6,0c6.44,0,10.04,1.96,10.04,6.76c0,2.8-1.6,5.24-4.52,5.88l0,0.04c3.8,0.28,6.68,2.88,6.68,6.92z M93.96,101.28c0-2.6-2.04-3.44-4.84-3.44l-2.24,0l0,7.44l2.08,0c2.92,0,5-0.76,5-4z M95.92,113.36c0-1.88-0.84-3.08-2.12-3.72c-1.24-0.6-2.6-0.72-4.28-0.72l-2.64,0l0,8.72l2.96,0c1.4,0,2.76-0.12,3.76-0.52c1.4-0.6,2.32-1.84,2.32-3.76z M112.62,119.44c0,1.64-1.48,2.68-2.84,2.68c-1.4,0-2.84-0.96-2.84-2.64c0-1.72,1.36-2.72,2.84-2.72c1.44,0,2.84,1,2.84,2.68z M139.2,94.92l-0.28,2.32c-0.08,0.68-0.52,0.84-1.24,0.84l-7.24,0l0,22.6c0,0.76-0.16,0.92-0.84,0.92l-3.52,0c-0.72,0-0.84-0.16-0.84-0.88l0-22.64l-7.48,0c-0.68,0-0.92-0.28-0.92-0.96l0-2.36c0-0.6,0.28-0.84,0.88-0.84l20.24,0c1.04,0,1.32,0.32,1.24,1z M161.5,120.64c0,0.64-0.28,0.96-0.96,0.96l-14.84,0c-0.8,0-1.08-0.2-1.08-1.08l0-25.6c0-0.64,0.28-1,0.92-1l15.08,0c0.64,0,0.84,0.24,0.84,0.68l0,0.24l-0.28,2.4c-0.08,0.72-0.52,0.84-1.36,0.84l-10.04,0l0,7.24l9.24,0c0.76,0,1,0.32,1,0.88l0,2.28c0,0.68-0.28,0.96-0.96,0.96l-9.28,0l0,8l10.72,0c0.68,0,1,0.28,1,0.92l0,2.28z M188.52,119.64c0,0.36-0.16,0.6-0.64,0.8c-2.64,1.08-5.04,1.64-7.96,1.64c-8.44,0-12.56-5.96-12.56-14.2c0-8.2,4.92-14.48,12.96-14.48c2.76,0,5.24,0.56,7.52,1.68c0.48,0.24,0.64,0.44,0.64,0.68c0,0.16-0.04,0.32-0.12,0.52l-0.92,2.52c-0.12,0.36-0.32,0.52-0.56,0.52c-0.12,0-0.28-0.08-0.44-0.16c-2-1.04-3.8-1.44-5.8-1.44c-5.56,0-7.72,5.12-7.72,9.96c0,6.16,2.88,10.08,7.8,10.08c1.92,0,3.88-0.44,5.76-1.28c0.2-0.08,0.36-0.16,0.48-0.16c0.28,0,0.48,0.2,0.64,0.6l0.8,2.16c0.08,0.2,0.12,0.4,0.12,0.56z M216.3,120.6c0,0.72-0.28,1-0.96,1l-3.16,0c-0.72,0-1.04-0.28-1.04-1l0-11.16l-11.36,0l0,11.16c0,0.72-0.32,1-1,1l-3.12,0c-0.72,0-1.08-0.28-1.08-1l0-25.72c0-0.68,0.44-0.96,1.08-0.96l3.12,0c0.64,0,1,0.24,1,0.96l0,10.44l11.36,0l0-10.44c0-0.68,0.4-0.96,1.04-0.96l3.16,0c0.64,0,0.96,0.24,0.96,0.96l0,25.72z"/><path fill="#ffffff" d="M233.506,99.28l3.474,0l0-1.134l-3.474,0q-2.592,0-4.392,1.836q-1.818,1.854-1.818,4.626q0,2.574,1.818,4.392t4.392,1.818l2.304,0l1.17,0l0-1.152l0-5.76l-1.17,0l-2.754,0l0,1.152l2.754,0l0,4.608l-2.304,0q-2.052,0-3.546-1.494t-1.494-3.564q0-2.25,1.494-3.798q1.476-1.53,3.546-1.53z M245.25712,104.482l1.35,0q1.368,0,2.268-0.9t0.9-2.268q0-1.206-0.9-2.16q-0.954-0.99-2.268-0.99l-5.634,0l-1.116,0l0,12.636l1.116,0l0-6.318l2.934,0l3.834,6.318l1.35,0z M240.97312,103.366l0-4.068l5.634,0q0.828,0,1.458,0.594q0.594,0.594,0.594,1.422q0,0.864-0.594,1.458q-0.63,0.594-1.458,0.594l-5.634,0z M252.25624,110.8l1.134,0l0-12.654l-1.134,0l0,12.654z M259.03936,98.146l5.652,0l1.116,0l0,12.654l-1.116,0l0-6.336l-5.652,0q-1.368,0-2.268-0.9t-0.9-2.25q0-1.224,0.9-2.178q0.954-0.99,2.268-0.99z M259.03936,103.348l5.652,0l0-4.086l-5.652,0q-0.828,0-1.458,0.594q-0.594,0.63-0.594,1.458q0,0.846,0.594,1.44q0.63,0.594,1.458,0.594z"/></svg>
